<svg width="38" height="38" viewBox="0 0 38 38" fill="none" xmlns="http://www.w3.org/2000/svg">
<path fill-rule="evenodd" clip-rule="evenodd" d="M32.4928 2.81285V14.949H20.3429C18.9142 14.949 17.5327 15.5156 16.5291 16.5309C15.5254 17.5462 14.9469 18.9156 14.9469 20.3441V37.8872H2.80875C2.08849 37.8872 1.40366 37.6038 0.907741 37.0962C0.400018 36.6004 0.116638 35.9038 0.116638 35.1955V7.97188C0.116638 7.25174 0.400018 6.56701 0.907741 6.05938C2.20657 4.76076 4.7688 2.19896 6.06762 0.900347C6.57535 0.392708 7.27199 0.109375 7.98044 0.109375H29.7889C31.2767 0.109375 32.4928 1.31354 32.4928 2.81285Z" fill="white"/>
<path fill-rule="evenodd" clip-rule="evenodd" d="M20.3429 17.6524C19.6226 17.6524 18.9378 17.9358 18.4419 18.4434C17.9342 18.9392 17.6508 19.6358 17.6508 20.3441V37.8871H35.1968C35.917 37.8871 36.6018 37.6038 37.0978 37.0962C37.6055 36.6003 37.8889 35.9038 37.8889 35.1955V17.6524H20.3429ZM32.2213 30.6503L28.6082 33.5427C28.3602 33.7434 28.065 33.8378 27.7698 33.8378C27.4746 33.8378 27.1676 33.7434 26.9315 33.5427L23.3184 30.6503C22.7398 30.1899 22.6454 29.3399 23.1059 28.7497C23.5664 28.1712 24.4165 28.0767 25.0069 28.5372L26.4356 29.6705V23.0358C26.4356 22.292 27.0378 21.6899 27.7816 21.6899C28.5255 21.6899 29.1277 22.292 29.1277 23.0358V29.6705L30.5564 28.5372C31.135 28.0767 31.9851 28.1712 32.4574 28.7497C32.9297 29.3281 32.8234 30.1781 32.2449 30.6503H32.2213Z" fill="white"/>
</svg>
